<svg version="1.1"
      xmlns="http://www.w3.org/2000/svg"
      xmlns:xlink="http://www.w3.org/1999/xlink"  id="snapshot-17774" width="250" height="250" viewBox="0 0 250 250"><desc>This image was made on Patterninja.com</desc><defs>
<!-- image 34167 -->
<g id="transformed-34167" data-image="34167" transform="translate(86.608, 95) rotate(0, 41.392, 52)"><g><svg version="1.1" width="82.784px" height="104px" viewBox="0 0 82.784 104"><g id="original-34167"><svg xmlns="http://www.w3.org/2000/svg" viewBox="0 0 55 69" xmlns:xlink="http://www.w3.org/1999/xlink" version="1.1" preserveAspectRatio="xMidYMid meet">
  <path fill-rule="evenodd" d="M5 69V5h50v64z" fill="rgba(59, 92, 187, 1)" stroke="none"/>
  <path fill-rule="evenodd" d="M0 64V0h36l14 14v50z" fill="rgba(238, 238, 238, 1)" stroke="none"/>
  <path fill-rule="evenodd" d="M36 0l14 14H36z" fill="rgba(210, 210, 210, 1)" stroke="none"/>
  <path fill-rule="evenodd" d="M10.5 49h29a.5.5 0 1 1 0 1h-29a.5.5 0 1 1 0-1z" fill="rgba(59, 92, 187, 1)" stroke="none"/>
  <path fill-rule="evenodd" d="M10.5 39h29a.5.5 0 1 1 0 1h-29a.5.5 0 1 1 0-1z" fill="rgba(59, 92, 187, 1)" stroke="none"/>
  <path fill-rule="evenodd" d="M10.5 29h29a.5.5 0 1 1 0 1h-29a.5.5 0 1 1 0-1z" fill="rgba(59, 92, 187, 1)" stroke="none"/>
  <path fill-rule="evenodd" d="M10.5 19h29a.5.5 0 1 1 0 1h-29a.5.5 0 1 1 0-1z" fill="rgba(59, 92, 187, 1)" stroke="none"/>
</svg>
</g></svg></g></g>
<!-- /image 34167 -->

<!-- image 59822 -->
<g id="transformed-59822" data-image="59822" transform="translate(-48.24000000000004, -59) rotate(0, 48.24000000000004, 60)"><g><svg version="1.1" width="96.48000000000008px" height="120px" viewBox="0 0 96.48000000000008 120"><g id="original-59822"><svg xmlns="http://www.w3.org/2000/svg" viewBox="0 0 54 67" xmlns:xlink="http://www.w3.org/1999/xlink" version="1.1" preserveAspectRatio="xMidYMid meet">
  <path fill-rule="evenodd" d="M15.95 56.05a3 3 0 0 1 0 4.243l-5.657 5.657a3 3 0 0 1-4.243-4.243l5.657-5.657a3 3 0 0 1 4.243 0zm22.1 0a3 3 0 0 0 0 4.243l5.657 5.657a3 3 0 0 0 4.243-4.243l-5.657-5.657a3 3 0 0 0-4.243 0z" fill="rgba(73, 40, 131, 1)" stroke="none"/>
  <path fill-rule="evenodd" d="M6.75 1.871c6.218-3.59 14.168-1.46 17.758 4.758l-22.516 13C-1.598 13.411.532 5.461 6.75 1.871z" fill="rgba(27, 21, 32, 0.7)" stroke="none"/>
  <path fill-rule="evenodd" d="M9.23.764c5.687-1.855 12.084.426 15.229 5.78L6.992 16.63C3.942 11.346 5.022 4.811 9.23.764z" fill="rgba(27, 21, 32, 0.8)" stroke="none"/>
  <path fill-rule="evenodd" d="M47.25 1.871c-6.218-3.59-14.168-1.46-17.758 4.758l22.516 13c3.59-6.218 1.46-14.168-4.758-17.758z" fill="rgba(27, 21, 32, 0.7)" stroke="none"/>
  <path fill-rule="evenodd" d="M44.77.764c-5.687-1.855-12.084.426-15.229 5.78L47.008 16.63c3.05-5.283 1.97-11.818-2.238-15.865z" fill="rgba(123, 112, 171, 1)" stroke="none"/>
  <circle cx="27" cy="38" r="27" fill-rule="evenodd" fill="rgba(123, 112, 171, 1)" stroke="none"/>
  <circle cx="27" cy="38" r="21" fill-rule="evenodd" fill="rgba(238, 239, 236, 1)" stroke="none"/>
  <path fill-rule="evenodd" d="M22.646 34.354l.708-.708 16 16-.708.708z" fill="rgba(255, 114, 95, 1)" stroke="none"/>
  <circle cx="27" cy="38" r="3" fill-rule="evenodd" fill="rgba(73, 40, 131, 1)" stroke="none"/>
  <path fill-rule="evenodd" d="M28 38a1 1 0 0 1-1 1H16a1 1 0 0 1 0-2h11a1 1 0 0 1 1 1z" fill="rgba(73, 40, 131, 1)" stroke="none"/>
  <path fill-rule="evenodd" d="M27 22a1 1 0 0 1 1 1v15a1 1 0 0 1-2 0V23a1 1 0 0 1 1-1z" fill="rgba(73, 40, 131, 1)" stroke="none"/>
</svg>
</g></svg></g></g>
<!-- /image 59822 -->
</defs><rect x="0" y="0" width="250" height="250" fill="rgba(220, 208, 241, 1)"></rect><use xlink:href="#transformed-34167" transform="translate(-250, -250)"></use><use xlink:href="#transformed-34167" transform="translate(0, -250)"></use><use xlink:href="#transformed-34167" transform="translate(250, -250)"></use><use xlink:href="#transformed-34167" transform="translate(-250, 0)"></use><use xlink:href="#transformed-34167" transform="translate(0, 0)"></use><use xlink:href="#transformed-34167" transform="translate(250, 0)"></use><use xlink:href="#transformed-34167" transform="translate(-250, 250)"></use><use xlink:href="#transformed-34167" transform="translate(0, 250)"></use><use xlink:href="#transformed-34167" transform="translate(250, 250)"></use><use xlink:href="#transformed-59822" transform="translate(-250, -250)"></use><use xlink:href="#transformed-59822" transform="translate(0, -250)"></use><use xlink:href="#transformed-59822" transform="translate(250, -250)"></use><use xlink:href="#transformed-59822" transform="translate(-250, 0)"></use><use xlink:href="#transformed-59822" transform="translate(0, 0)"></use><use xlink:href="#transformed-59822" transform="translate(250, 0)"></use><use xlink:href="#transformed-59822" transform="translate(-250, 250)"></use><use xlink:href="#transformed-59822" transform="translate(0, 250)"></use><use xlink:href="#transformed-59822" transform="translate(250, 250)"></use></svg>